<svg xmlns="http://www.w3.org/2000/svg" viewBox="0 0 341.78 403.02"><defs><style>.cls-1{fill:#f4b72a;}.cls-10,.cls-100,.cls-101,.cls-102,.cls-103,.cls-104,.cls-105,.cls-106,.cls-107,.cls-108,.cls-109,.cls-11,.cls-110,.cls-111,.cls-112,.cls-113,.cls-114,.cls-115,.cls-116,.cls-117,.cls-118,.cls-119,.cls-12,.cls-120,.cls-121,.cls-122,.cls-123,.cls-124,.cls-125,.cls-126,.cls-127,.cls-128,.cls-13,.cls-14,.cls-15,.cls-16,.cls-17,.cls-18,.cls-19,.cls-2,.cls-20,.cls-21,.cls-22,.cls-23,.cls-24,.cls-25,.cls-26,.cls-27,.cls-28,.cls-29,.cls-3,.cls-30,.cls-31,.cls-32,.cls-33,.cls-34,.cls-35,.cls-36,.cls-37,.cls-38,.cls-39,.cls-4,.cls-40,.cls-41,.cls-42,.cls-43,.cls-44,.cls-45,.cls-46,.cls-47,.cls-48,.cls-49,.cls-5,.cls-50,.cls-51,.cls-52,.cls-53,.cls-54,.cls-55,.cls-56,.cls-57,.cls-58,.cls-59,.cls-6,.cls-60,.cls-61,.cls-62,.cls-63,.cls-64,.cls-65,.cls-66,.cls-67,.cls-68,.cls-69,.cls-7,.cls-71,.cls-72,.cls-73,.cls-74,.cls-75,.cls-76,.cls-77,.cls-78,.cls-79,.cls-8,.cls-80,.cls-81,.cls-82,.cls-83,.cls-84,.cls-85,.cls-86,.cls-87,.cls-88,.cls-89,.cls-9,.cls-90,.cls-91,.cls-92,.cls-93,.cls-94,.cls-95,.cls-96,.cls-97,.cls-98,.cls-99{fill:none;stroke-miterlimit:10;}.cls-2{stroke:#f4b72a;}.cls-3{stroke:#f3b62a;}.cls-4{stroke:#f3b629;}.cls-5{stroke:#f2b529;}.cls-6{stroke:#f1b429;}.cls-7{stroke:#f0b328;}.cls-8{stroke:#efb228;}.cls-9{stroke:#efb127;}.cls-10{stroke:#eeb027;}.cls-11{stroke:#edb027;}.cls-12{stroke:#ecaf26;}.cls-13{stroke:#ecae26;}.cls-14{stroke:#ebad25;}.cls-15{stroke:#eaac25;}.cls-16{stroke:#e9ab24;}.cls-17{stroke:#e8ab24;}.cls-18{stroke:#e8aa24;}.cls-19{stroke:#e7a923;}.cls-20{stroke:#e6a823;}.cls-21{stroke:#e5a723;}.cls-22{stroke:#e5a622;}.cls-23{stroke:#e4a522;}.cls-24{stroke:#e3a521;}.cls-25{stroke:#e2a421;}.cls-26{stroke:#e2a321;}.cls-27{stroke:#e1a220;}.cls-28{stroke:#e0a120;}.cls-29{stroke:#dfa020;}.cls-30{stroke:#dfa01f;}.cls-31{stroke:#de9f1f;}.cls-32{stroke:#dd9e1e;}.cls-33{stroke:#dc9d1e;}.cls-34{stroke:#dc9c1e;}.cls-35{stroke:#db9c1d;}.cls-36{stroke:#da9b1d;}.cls-37{stroke:#da9a1d;}.cls-38{stroke:#d9991c;}.cls-39{stroke:#d8981c;}.cls-40{stroke:#d7981c;}.cls-41{stroke:#d7971b;}.cls-42{stroke:#d6961b;}.cls-43{stroke:#d5951b;}.cls-44{stroke:#d4941a;}.cls-45{stroke:#d4931a;}.cls-46{stroke:#d3931a;}.cls-47{stroke:#d29219;}.cls-48{stroke:#d29119;}.cls-49{stroke:#d19019;}.cls-50{stroke:#d09018;}.cls-51{stroke:#d08f18;}.cls-52{stroke:#cf8e18;}.cls-53{stroke:#ce8d17;}.cls-54{stroke:#cd8c17;}.cls-55{stroke:#cc8b17;}.cls-56{stroke:#cb8a16;}.cls-57{stroke:#ca8916;}.cls-58{stroke:#c98815;}.cls-59{stroke:#c98715;}.cls-60{stroke:#c88715;}.cls-61{stroke:#c78614;}.cls-62{stroke:#c78514;}.cls-63{stroke:#c68414;}.cls-64{stroke:#c58313;}.cls-65{stroke:#c48213;}.cls-66{stroke:#c38112;}.cls-67{stroke:#c28012;}.cls-68{stroke:#c17f11;}.cls-69{stroke:#c17e11;}.cls-70{fill:#fff;}.cls-71{stroke:#fff;}.cls-72{stroke:#fefefe;}.cls-73{stroke:#fdfdfd;}.cls-74{stroke:#fcfcfc;}.cls-75{stroke:#fbfbfb;}.cls-76{stroke:#fafafa;}.cls-77{stroke:#f9f9f9;}.cls-78{stroke:#f8f8f8;}.cls-79{stroke:#f7f7f7;}.cls-80{stroke:#f6f6f6;}.cls-81{stroke:#f5f5f5;}.cls-82{stroke:#f4f4f4;}.cls-83{stroke:#f3f3f3;}.cls-84{stroke:#f2f2f2;}.cls-85{stroke:#f1f1f1;}.cls-86{stroke:#f1f1f0;}.cls-87{stroke:#f0f0f0;}.cls-88{stroke:#f0efef;}.cls-89{stroke:#efefef;}.cls-90{stroke:#eee;}.cls-91{stroke:#ededed;}.cls-92{stroke:#ececec;}.cls-93{stroke:#ebebeb;}.cls-94{stroke:#eaeaea;}.cls-95{stroke:#e9e9e9;}.cls-96{stroke:#e8e8e8;}.cls-97{stroke:#e7e7e7;}.cls-98{stroke:#e7e7e6;}.cls-99{stroke:#e6e6e6;}.cls-100{stroke:#e6e6e5;}.cls-101{stroke:#e5e5e5;}.cls-102{stroke:#e5e4e4;}.cls-103{stroke:#e4e4e4;}.cls-104{stroke:#e4e3e3;}.cls-105{stroke:#e3e3e3;}.cls-106{stroke:#e2e2e2;}.cls-107{stroke:#e1e1e1;}.cls-108{stroke:#e0e0e0;}.cls-109{stroke:#dfdfdf;}.cls-110{stroke:#dedede;}.cls-111{stroke:#ddd;}.cls-112{stroke:#dcdcdc;}.cls-113{stroke:#dcdcdb;}.cls-114{stroke:#dbdbdb;}.cls-115{stroke:#dbdbda;}.cls-116{stroke:#dadada;}.cls-117{stroke:#fcfcfb;}.cls-118{stroke:#fbfafa;}.cls-119{stroke:#faf9f9;}.cls-120{stroke:#f9f8f8;}.cls-121{stroke:#f8f7f7;}.cls-122{stroke:#f7f6f6;}.cls-123{stroke:#f6f5f5;}.cls-124{stroke:#f5f4f4;}.cls-125{stroke:#f4f3f3;}.cls-126{stroke:#f3f2f2;}.cls-127{stroke:#f2f1f1;}.cls-128{stroke:#f1f0f0;}</style></defs><g id="Livello_2" data-name="Livello 2"><g id="Livello_2-2" data-name="Livello 2"><path class="cls-1" d="M341.78,170.89A170.89,170.89,0,0,0,170.56,0C76.21.18-.61,77.69,0,172A171,171,0,0,0,108.28,329.94,80.61,80.61,0,0,1,151,368.75L167,400.6a4.4,4.4,0,0,0,7.86,0l15.92-31.85A80.22,80.22,0,0,1,233.3,330,171,171,0,0,0,341.78,170.89Z"/><path class="cls-2" d="M170.89,336.54C79,336.54,4.31,261.81,4.31,170S79,3.38,170.89,3.38,337.47,78.11,337.47,170,262.74,336.54,170.89,336.54Z"/><path class="cls-3" d="M170.89,3.77c91.64,0,166.19,74.55,166.19,166.19S262.53,336.15,170.89,336.15,4.7,261.6,4.7,170,79.25,3.77,170.89,3.77Z"/><path class="cls-4" d="M170.89,4.15C262.32,4.15,336.7,78.53,336.7,170s-74.38,165.8-165.81,165.8S5.08,261.38,5.08,170,79.46,4.15,170.89,4.15Z"/><path class="cls-5" d="M170.89,4.54C262.1,4.54,336.31,78.75,336.31,170S262.1,335.38,170.89,335.38,5.47,261.17,5.47,170,79.68,4.54,170.89,4.54Z"/><path class="cls-6" d="M170.89,4.93c91,0,165,74,165,165s-74,165-165,165-165-74-165-165S79.89,4.93,170.89,4.93Z"/><path class="cls-7" d="M170.89,5.32c90.78,0,164.64,73.86,164.64,164.64S261.67,334.6,170.89,334.6,6.25,260.74,6.25,170,80.11,5.32,170.89,5.32Z"/><path class="cls-8" d="M170.89,5.71c90.57,0,164.25,73.68,164.25,164.25S261.46,334.21,170.89,334.21,6.64,260.53,6.64,170,80.32,5.71,170.89,5.71Z"/><path class="cls-9" d="M170.89,6.1C261.24,6.1,334.75,79.61,334.75,170S261.24,333.82,170.89,333.82,7,260.31,7,170,80.54,6.1,170.89,6.1Z"/><path class="cls-10" d="M170.89,6.48C261,6.48,334.36,79.82,334.36,170S261,333.43,170.89,333.43,7.41,260.1,7.41,170,80.75,6.48,170.89,6.48Z"/><path class="cls-11" d="M170.89,6.87C260.82,6.87,334,80,334,170S260.82,333.05,170.89,333.05,7.8,259.89,7.8,170,81,6.87,170.89,6.87Z"/><path class="cls-12" d="M170.89,7.26c89.71,0,162.7,73,162.7,162.7s-73,162.7-162.7,162.7S8.19,259.67,8.19,170,81.18,7.26,170.89,7.26Z"/><path class="cls-13" d="M170.89,7.65C260.39,7.65,333.2,80.46,333.2,170S260.39,332.27,170.89,332.27,8.58,259.46,8.58,170,81.39,7.65,170.89,7.65Z"/><path class="cls-14" d="M170.89,8C260.17,8,332.81,80.68,332.81,170S260.17,331.88,170.89,331.88,9,259.24,9,170,81.61,8,170.89,8Z"/><path class="cls-15" d="M170.89,8.43C260,8.43,332.42,80.89,332.42,170S260,331.49,170.89,331.49,9.36,259,9.36,170,81.82,8.43,170.89,8.43Z"/><path class="cls-16" d="M170.89,8.82C259.74,8.82,332,81.1,332,170S259.74,331.1,170.89,331.1,9.75,258.81,9.75,170,82,8.82,170.89,8.82Z"/><path class="cls-17" d="M170.89,9.2C259.53,9.2,331.65,81.32,331.65,170S259.53,330.71,170.89,330.71,10.13,258.6,10.13,170,82.25,9.2,170.89,9.2Z"/><path class="cls-18" d="M170.89,9.59c88.43,0,160.37,71.94,160.37,160.37S259.32,330.33,170.89,330.33,10.52,258.39,10.52,170,82.46,9.59,170.89,9.59Z"/><path class="cls-19" d="M170.89,10c88.21,0,160,71.77,160,160s-71.77,160-160,160-160-71.77-160-160S82.68,10,170.89,10Z"/><path class="cls-20" d="M170.89,10.37c88,0,159.59,71.59,159.59,159.59S258.89,329.55,170.89,329.55,11.3,258,11.3,170,82.89,10.37,170.89,10.37Z"/><path class="cls-21" d="M170.89,10.76c87.78,0,159.2,71.42,159.2,159.2s-71.42,159.2-159.2,159.2S11.69,257.74,11.69,170,83.11,10.76,170.89,10.76Z"/><path class="cls-22" d="M170.89,11.15C258.46,11.15,329.7,82.39,329.7,170S258.46,328.77,170.89,328.77,12.08,257.53,12.08,170,83.32,11.15,170.89,11.15Z"/><path class="cls-23" d="M170.89,11.53c87.36,0,158.42,71.07,158.42,158.43S258.25,328.38,170.89,328.38,12.46,257.31,12.46,170,83.53,11.53,170.89,11.53Z"/><path class="cls-24" d="M170.89,11.92c87.14,0,158,70.9,158,158s-70.9,158-158,158-158-70.9-158-158S83.75,11.92,170.89,11.92Z"/><path class="cls-25" d="M170.89,12.31C257.82,12.31,328.54,83,328.54,170S257.82,327.61,170.89,327.61,13.24,256.89,13.24,170,84,12.31,170.89,12.31Z"/><path class="cls-26" d="M170.89,12.7C257.6,12.7,328.15,83.25,328.15,170S257.6,327.22,170.89,327.22,13.63,256.67,13.63,170,84.18,12.7,170.89,12.7Z"/><path class="cls-27" d="M170.89,13.09c86.5,0,156.87,70.37,156.87,156.87S257.39,326.83,170.89,326.83,14,256.46,14,170,84.39,13.09,170.89,13.09Z"/><path class="cls-28" d="M170.89,13.48c86.28,0,156.48,70.19,156.48,156.48s-70.2,156.48-156.48,156.48S14.41,256.24,14.41,170,84.6,13.48,170.89,13.48Z"/><path class="cls-29" d="M170.89,13.87C257,13.87,327,83.89,327,170S257,326.05,170.89,326.05,14.8,256,14.8,170,84.82,13.87,170.89,13.87Z"/><path class="cls-30" d="M170.89,14.25C256.75,14.25,326.6,84.1,326.6,170s-69.85,155.7-155.71,155.7S15.18,255.82,15.18,170,85,14.25,170.89,14.25Z"/><path class="cls-31" d="M170.89,14.64c85.64,0,155.32,69.68,155.32,155.32S256.53,325.28,170.89,325.28,15.57,255.6,15.57,170,85.25,14.64,170.89,14.64Z"/><path class="cls-32" d="M170.89,15C256.32,15,325.82,84.53,325.82,170s-69.5,154.93-154.93,154.93S16,255.39,16,170,85.46,15,170.89,15Z"/><path class="cls-33" d="M170.89,15.42c85.21,0,154.54,69.33,154.54,154.54S256.1,324.5,170.89,324.5,16.35,255.17,16.35,170,85.68,15.42,170.89,15.42Z"/><path class="cls-34" d="M170.89,15.81C255.89,15.81,325,85,325,170S255.89,324.11,170.89,324.11,16.74,255,16.74,170,85.89,15.81,170.89,15.81Z"/><path class="cls-35" d="M170.89,16.2c84.78,0,153.76,69,153.76,153.76s-69,153.76-153.76,153.76S17.13,254.74,17.13,170,86.1,16.2,170.89,16.2Z"/><path class="cls-36" d="M170.89,16.58c84.57,0,153.37,68.81,153.37,153.38s-68.8,153.37-153.37,153.37S17.51,254.53,17.51,170,86.32,16.58,170.89,16.58Z"/><path class="cls-37" d="M170.89,17c84.36,0,153,68.63,153,153s-68.63,153-153,153-153-68.63-153-153S86.53,17,170.89,17Z"/><path class="cls-38" d="M170.89,17.36c84.14,0,152.6,68.46,152.6,152.6S255,322.56,170.89,322.56,18.29,254.1,18.29,170,86.75,17.36,170.89,17.36Z"/><path class="cls-39" d="M170.89,17.75C254.82,17.75,323.1,86,323.1,170S254.82,322.17,170.89,322.17,18.68,253.89,18.68,170,87,17.75,170.89,17.75Z"/><path class="cls-40" d="M170.89,18.14c83.71,0,151.82,68.11,151.82,151.82S254.6,321.78,170.89,321.78,19.07,253.67,19.07,170,87.18,18.14,170.89,18.14Z"/><path class="cls-41" d="M170.89,18.53c83.5,0,151.43,67.93,151.43,151.43S254.39,321.39,170.89,321.39,19.46,253.46,19.46,170,87.39,18.53,170.89,18.53Z"/><path class="cls-42" d="M170.89,18.92c83.29,0,151,67.75,151,151s-67.75,151-151,151-151-67.75-151-151S87.6,18.92,170.89,18.92Z"/><path class="cls-43" d="M170.89,19.3C254,19.3,321.55,86.89,321.55,170S254,320.61,170.89,320.61,20.23,253,20.23,170,87.82,19.3,170.89,19.3Z"/><path class="cls-44" d="M170.89,19.69c82.86,0,150.27,67.41,150.27,150.27S253.75,320.23,170.89,320.23,20.62,252.82,20.62,170,88,19.69,170.89,19.69Z"/><path class="cls-45" d="M170.89,20.08c82.64,0,149.88,67.24,149.88,149.88S253.53,319.84,170.89,319.84,21,252.6,21,170,88.25,20.08,170.89,20.08Z"/><path class="cls-46" d="M170.89,20.47c82.43,0,149.49,67.06,149.49,149.49S253.32,319.45,170.89,319.45,21.4,252.39,21.4,170,88.46,20.47,170.89,20.47Z"/><path class="cls-47" d="M170.89,20.86C253.1,20.86,320,87.74,320,170s-66.89,149.1-149.1,149.1S21.79,252.17,21.79,170,88.67,20.86,170.89,20.86Z"/><path class="cls-48" d="M170.89,21.25C252.89,21.25,319.6,88,319.6,170S252.89,318.67,170.89,318.67,22.18,252,22.18,170,88.89,21.25,170.89,21.25Z"/><path class="cls-49" d="M170.89,21.63c81.79,0,148.32,66.54,148.32,148.33S252.68,318.28,170.89,318.28,22.57,251.75,22.57,170,89.1,21.63,170.89,21.63Z"/><path class="cls-50" d="M170.89,22C252.46,22,318.83,88.39,318.83,170S252.46,317.9,170.89,317.9,23,251.53,23,170,89.32,22,170.89,22Z"/><path class="cls-51" d="M170.89,22.41c81.36,0,147.55,66.19,147.55,147.55S252.25,317.51,170.89,317.51,23.34,251.32,23.34,170,89.53,22.41,170.89,22.41Z"/><path class="cls-52" d="M170.89,22.8c81.14,0,147.16,66,147.16,147.16S252,317.12,170.89,317.12,23.73,251.1,23.73,170,89.75,22.8,170.89,22.8Z"/><path class="cls-53" d="M170.89,23.19C251.82,23.19,317.66,89,317.66,170S251.82,316.73,170.89,316.73,24.12,250.89,24.12,170,90,23.19,170.89,23.19Z"/><path class="cls-53" d="M170.89,23.58c80.72,0,146.38,65.66,146.38,146.38S251.61,316.34,170.89,316.34,24.51,250.67,24.51,170,90.17,23.58,170.89,23.58Z"/><path class="cls-54" d="M170.89,24c80.5,0,146,65.49,146,146s-65.49,146-146,146-146-65.49-146-146S90.39,24,170.89,24Z"/><path class="cls-55" d="M170.89,24.35C251.18,24.35,316.5,89.67,316.5,170s-65.32,145.6-145.61,145.6S25.28,250.25,25.28,170,90.6,24.35,170.89,24.35Z"/><path class="cls-56" d="M170.89,24.74C251,24.74,316.11,89.89,316.11,170S251,315.18,170.89,315.18,25.67,250,25.67,170,90.82,24.74,170.89,24.74Z"/><path class="cls-56" d="M170.89,25.13c79.86,0,144.83,65,144.83,144.83s-65,144.83-144.83,144.83S26.06,249.82,26.06,170,91,25.13,170.89,25.13Z"/><path class="cls-57" d="M170.89,25.52c79.64,0,144.44,64.79,144.44,144.44S250.53,314.4,170.89,314.4,26.45,249.6,26.45,170,91.25,25.52,170.89,25.52Z"/><path class="cls-58" d="M170.89,25.91c79.43,0,144.05,64.62,144.05,144.05s-64.62,144-144,144-144-64.62-144-144S91.46,25.91,170.89,25.91Z"/><path class="cls-59" d="M170.89,26.3c79.22,0,143.66,64.44,143.66,143.66S250.11,313.62,170.89,313.62,27.23,249.18,27.23,170,91.67,26.3,170.89,26.3Z"/><path class="cls-60" d="M170.89,26.68c79,0,143.27,64.28,143.27,143.28S249.89,313.23,170.89,313.23,27.62,249,27.62,170,91.89,26.68,170.89,26.68Z"/><path class="cls-61" d="M170.89,27.07c78.79,0,142.89,64.1,142.89,142.89s-64.1,142.89-142.89,142.89S28,248.75,28,170,92.1,27.07,170.89,27.07Z"/><path class="cls-62" d="M170.89,27.46c78.57,0,142.5,63.93,142.5,142.5s-63.93,142.5-142.5,142.5S28.39,248.53,28.39,170,92.32,27.46,170.89,27.46Z"/><path class="cls-63" d="M170.89,27.85C249.25,27.85,313,91.6,313,170S249.25,312.07,170.89,312.07,28.78,248.32,28.78,170,92.53,27.85,170.89,27.85Z"/><path class="cls-64" d="M170.89,28.24C249,28.24,312.61,91.81,312.61,170S249,311.68,170.89,311.68,29.17,248.1,29.17,170,92.74,28.24,170.89,28.24Z"/><path class="cls-64" d="M170.89,28.63C248.82,28.63,312.22,92,312.22,170s-63.4,141.33-141.33,141.33S29.56,247.89,29.56,170,93,28.63,170.89,28.63Z"/><path class="cls-65" d="M170.89,29C248.61,29,311.83,92.24,311.83,170S248.61,310.9,170.89,310.9,30,247.68,30,170,93.17,29,170.89,29Z"/><path class="cls-66" d="M170.89,29.4c77.5,0,140.56,63.06,140.56,140.56S248.39,310.51,170.89,310.51,30.33,247.46,30.33,170,93.39,29.4,170.89,29.4Z"/><path class="cls-66" d="M170.89,29.79c77.29,0,140.17,62.88,140.17,140.17S248.18,310.13,170.89,310.13,30.72,247.25,30.72,170,93.6,29.79,170.89,29.79Z"/><path class="cls-67" d="M170.89,30.18C248,30.18,310.67,92.89,310.67,170S248,309.74,170.89,309.74,31.11,247,31.11,170,93.82,30.18,170.89,30.18Z"/><path class="cls-68" d="M170.89,30.57c76.86,0,139.39,62.53,139.39,139.39S247.75,309.35,170.89,309.35,31.5,246.82,31.5,170,94,30.57,170.89,30.57Z"/><circle class="cls-69" cx="170.89" cy="169.96" r="139" transform="translate(-24.25 311.42) rotate(-80.78)"/><circle class="cls-70" cx="170.99" cy="169.96" r="116.45"/><circle class="cls-71" cx="170.89" cy="169.96" r="140.65"/><circle class="cls-71" cx="170.89" cy="169.96" r="140.58"/><circle class="cls-72" cx="170.89" cy="169.96" r="140.51"/><circle class="cls-72" cx="170.89" cy="169.96" r="140.44"/><circle class="cls-73" cx="170.89" cy="169.96" r="140.38"/><circle class="cls-73" cx="170.89" cy="169.96" r="140.31"/><circle class="cls-74" cx="170.89" cy="169.96" r="140.24"/><circle class="cls-74" cx="170.89" cy="169.96" r="140.17"/><circle class="cls-75" cx="170.89" cy="169.96" r="140.1"/><circle class="cls-76" cx="170.89" cy="169.96" r="140.04"/><circle class="cls-76" cx="170.89" cy="169.96" r="139.97"/><circle class="cls-77" cx="170.89" cy="169.96" r="139.9"/><circle class="cls-77" cx="170.89" cy="169.96" r="139.83"/><circle class="cls-78" cx="170.89" cy="169.96" r="139.77"/><circle class="cls-78" cx="170.89" cy="169.96" r="139.7"/><circle class="cls-79" cx="170.89" cy="169.96" r="139.63"/><circle class="cls-79" cx="170.89" cy="169.96" r="139.56"/><circle class="cls-80" cx="170.89" cy="169.96" r="139.5"/><circle class="cls-80" cx="170.89" cy="169.96" r="139.43"/><circle class="cls-81" cx="170.89" cy="169.96" r="139.36"/><circle class="cls-81" cx="170.89" cy="169.96" r="139.29"/><circle class="cls-82" cx="170.89" cy="169.96" r="139.23"/><circle class="cls-82" cx="170.89" cy="169.96" r="139.16"/><circle class="cls-83" cx="170.89" cy="169.96" r="139.09"/><circle class="cls-83" cx="170.89" cy="169.96" r="139.02"/><circle class="cls-84" cx="170.89" cy="169.96" r="138.95"/><circle class="cls-84" cx="170.89" cy="169.96" r="138.89"/><circle class="cls-85" cx="170.89" cy="169.96" r="138.82"/><circle class="cls-86" cx="170.89" cy="169.96" r="138.75"/><circle class="cls-87" cx="170.89" cy="169.96" r="138.68"/><circle class="cls-88" cx="170.89" cy="169.96" r="138.62"/><circle class="cls-89" cx="170.89" cy="169.96" r="138.55"/><circle class="cls-90" cx="170.89" cy="169.96" r="138.48"/><circle class="cls-90" cx="170.89" cy="169.96" r="138.41"/><circle class="cls-91" cx="170.89" cy="169.96" r="138.35"/><circle class="cls-91" cx="170.89" cy="169.96" r="138.28"/><circle class="cls-92" cx="170.89" cy="169.96" r="138.21"/><circle class="cls-92" cx="170.89" cy="169.96" r="138.14"/><circle class="cls-93" cx="170.89" cy="169.96" r="138.08"/><circle class="cls-93" cx="170.89" cy="169.96" r="138.01"/><circle class="cls-94" cx="170.89" cy="169.96" r="137.94"/><circle class="cls-94" cx="170.89" cy="169.96" r="137.87"/><circle class="cls-95" cx="170.89" cy="169.96" r="137.8"/><circle class="cls-95" cx="170.89" cy="169.96" r="137.74"/><circle class="cls-96" cx="170.89" cy="169.96" r="137.67"/><circle class="cls-96" cx="170.89" cy="169.96" r="137.6"/><circle class="cls-97" cx="170.89" cy="169.96" r="137.53"/><circle class="cls-98" cx="170.89" cy="169.96" r="137.47"/><circle class="cls-99" cx="170.89" cy="169.96" r="137.4"/><circle class="cls-100" cx="170.89" cy="169.96" r="137.33"/><circle class="cls-101" cx="170.89" cy="169.96" r="137.26"/><circle class="cls-102" cx="170.89" cy="169.96" r="137.2"/><circle class="cls-103" cx="170.89" cy="169.96" r="137.13"/><circle class="cls-104" cx="170.89" cy="169.96" r="137.06"/><circle class="cls-105" cx="170.89" cy="169.96" r="136.99"/><circle class="cls-106" cx="170.89" cy="169.96" r="136.92"/><circle class="cls-106" cx="170.89" cy="169.96" r="136.86"/><circle class="cls-107" cx="170.89" cy="169.96" r="136.79"/><circle class="cls-107" cx="170.89" cy="169.96" r="136.72"/><circle class="cls-108" cx="170.89" cy="169.96" r="136.65"/><circle class="cls-108" cx="170.89" cy="169.96" r="136.59"/><circle class="cls-109" cx="170.89" cy="169.96" r="136.52"/><circle class="cls-109" cx="170.89" cy="169.96" r="136.45"/><circle class="cls-110" cx="170.89" cy="169.96" r="136.38"/><circle class="cls-110" cx="170.89" cy="169.96" r="136.32"/><circle class="cls-111" cx="170.89" cy="169.96" r="136.25"/><circle class="cls-111" cx="170.89" cy="169.96" r="136.18"/><circle class="cls-112" cx="170.89" cy="169.96" r="136.11"/><circle class="cls-113" cx="170.89" cy="169.96" r="136.05"/><circle class="cls-114" cx="170.89" cy="169.96" r="135.98"/><circle class="cls-115" cx="170.89" cy="169.96" r="135.91"/><circle class="cls-116" cx="170.89" cy="169.96" r="135.84"/><circle class="cls-71" cx="170.89" cy="169.96" r="108.93"/><circle class="cls-71" cx="170.89" cy="169.96" r="109.17"/><circle class="cls-71" cx="170.89" cy="169.96" r="109.41"/><circle class="cls-71" cx="170.89" cy="169.96" r="109.65"/><circle class="cls-72" cx="170.89" cy="169.96" r="109.9"/><circle class="cls-72" cx="170.89" cy="169.96" r="110.14"/><circle class="cls-72" cx="170.89" cy="169.96" r="110.38"/><circle class="cls-72" cx="170.89" cy="169.96" r="110.62"/><circle class="cls-72" cx="170.89" cy="169.96" r="110.87"/><circle class="cls-72" cx="170.89" cy="169.96" r="111.11"/><circle class="cls-73" cx="170.89" cy="169.96" r="111.35"/><circle class="cls-73" cx="170.89" cy="169.96" r="111.59"/><circle class="cls-73" cx="170.89" cy="169.96" r="111.84"/><circle class="cls-73" cx="170.89" cy="169.96" r="112.08"/><circle class="cls-73" cx="170.89" cy="169.96" r="112.32"/><circle class="cls-73" cx="170.89" cy="169.96" r="112.56"/><circle class="cls-74" cx="170.89" cy="169.96" r="112.81"/><circle class="cls-74" cx="170.89" cy="169.96" r="113.05"/><circle class="cls-74" cx="170.89" cy="169.96" r="113.29"/><circle class="cls-74" cx="170.89" cy="169.96" r="113.53"/><circle class="cls-74" cx="170.89" cy="169.96" r="113.78"/><circle class="cls-74" cx="170.89" cy="169.96" r="114.02"/><circle class="cls-117" cx="170.89" cy="169.96" r="114.26"/><circle class="cls-75" cx="170.89" cy="169.96" r="114.5"/><circle class="cls-75" cx="170.89" cy="169.96" r="114.75"/><circle class="cls-75" cx="170.89" cy="169.96" r="114.99"/><circle class="cls-75" cx="170.89" cy="169.96" r="115.23"/><circle class="cls-75" cx="170.89" cy="169.96" r="115.47"/><circle class="cls-118" cx="170.89" cy="169.96" r="115.72"/><circle class="cls-76" cx="170.89" cy="169.96" r="115.96"/><circle class="cls-76" cx="170.89" cy="169.96" r="116.2"/><circle class="cls-76" cx="170.89" cy="169.96" r="116.44"/><circle class="cls-76" cx="170.89" cy="169.96" r="116.69"/><circle class="cls-76" cx="170.89" cy="169.96" r="116.93"/><circle class="cls-119" cx="170.89" cy="169.96" r="117.17"/><circle class="cls-77" cx="170.89" cy="169.96" r="117.41"/><circle class="cls-77" cx="170.89" cy="169.96" r="117.66"/><circle class="cls-77" cx="170.89" cy="169.96" r="117.9"/><circle class="cls-77" cx="170.89" cy="169.96" r="118.14"/><circle class="cls-77" cx="170.89" cy="169.96" r="118.38"/><circle class="cls-120" cx="170.89" cy="169.96" r="118.63"/><circle class="cls-78" cx="170.89" cy="169.96" r="118.87"/><circle class="cls-78" cx="170.89" cy="169.96" r="119.11"/><circle class="cls-78" cx="170.89" cy="169.96" r="119.35"/><circle class="cls-78" cx="170.89" cy="169.96" r="119.6"/><circle class="cls-78" cx="170.89" cy="169.96" r="119.84"/><circle class="cls-121" cx="170.89" cy="169.96" r="120.08"/><circle class="cls-79" cx="170.89" cy="169.96" r="120.32"/><circle class="cls-79" cx="170.89" cy="169.96" r="120.57"/><circle class="cls-79" cx="170.89" cy="169.96" r="120.81"/><circle class="cls-79" cx="170.89" cy="169.96" r="121.05"/><circle class="cls-79" cx="170.89" cy="169.96" r="121.29"/><circle class="cls-122" cx="170.89" cy="169.96" r="121.54"/><circle class="cls-80" cx="170.89" cy="169.96" r="121.78"/><circle class="cls-80" cx="170.89" cy="169.96" r="122.02"/><circle class="cls-80" cx="170.89" cy="169.96" r="122.26"/><circle class="cls-80" cx="170.89" cy="169.96" r="122.51"/><circle class="cls-80" cx="170.89" cy="169.96" r="122.75"/><circle class="cls-123" cx="170.89" cy="169.96" r="122.99"/><circle class="cls-81" cx="170.89" cy="169.96" r="123.23"/><circle class="cls-81" cx="170.89" cy="169.96" r="123.48"/><circle class="cls-81" cx="170.89" cy="169.96" r="123.72"/><circle class="cls-81" cx="170.89" cy="169.96" r="123.96"/><circle class="cls-81" cx="170.89" cy="169.96" r="124.2"/><circle class="cls-124" cx="170.89" cy="169.96" r="124.45"/><circle class="cls-82" cx="170.89" cy="169.96" r="124.69"/><circle class="cls-82" cx="170.89" cy="169.96" r="124.93"/><circle class="cls-82" cx="170.89" cy="169.96" r="125.17"/><circle class="cls-82" cx="170.89" cy="169.96" r="125.42"/><circle class="cls-82" cx="170.89" cy="169.96" r="125.66"/><circle class="cls-125" cx="170.89" cy="169.96" r="125.9"/><circle class="cls-83" cx="170.89" cy="169.96" r="126.14"/><circle class="cls-83" cx="170.89" cy="169.96" r="126.39"/><circle class="cls-83" cx="170.89" cy="169.96" r="126.63"/><circle class="cls-83" cx="170.89" cy="169.96" r="126.87"/><circle class="cls-83" cx="170.89" cy="169.96" r="127.11"/><circle class="cls-126" cx="170.89" cy="169.96" r="127.36"/><circle class="cls-84" cx="170.89" cy="169.96" r="127.6"/><circle class="cls-84" cx="170.89" cy="169.96" r="127.84"/><circle class="cls-84" cx="170.89" cy="169.96" r="128.08"/><circle class="cls-84" cx="170.89" cy="169.96" r="128.33"/><circle class="cls-84" cx="170.89" cy="169.96" r="128.57"/><circle class="cls-127" cx="170.89" cy="169.96" r="128.81"/><circle class="cls-85" cx="170.89" cy="169.96" r="129.05"/><circle class="cls-85" cx="170.89" cy="169.96" r="129.29"/><circle class="cls-85" cx="170.89" cy="169.96" r="129.54"/><circle class="cls-85" cx="170.89" cy="169.96" r="129.78"/><circle class="cls-85" cx="170.89" cy="169.96" r="130.02"/><circle class="cls-128" cx="170.89" cy="169.96" r="130.26"/><circle class="cls-87" cx="170.89" cy="169.96" r="130.51"/><circle class="cls-87" cx="170.89" cy="169.96" r="130.75"/><circle class="cls-87" cx="170.89" cy="169.96" r="130.99"/><circle class="cls-87" cx="170.89" cy="169.96" r="131.23"/><circle class="cls-87" cx="170.89" cy="169.96" r="131.48"/><circle class="cls-89" cx="170.89" cy="169.96" r="131.72"/><circle class="cls-89" cx="170.89" cy="169.96" r="131.96"/><circle class="cls-89" cx="170.89" cy="169.96" r="132.2"/><circle class="cls-89" cx="170.89" cy="169.96" r="132.45"/><circle class="cls-89" cx="170.89" cy="169.96" r="132.69"/><circle class="cls-89" cx="170.89" cy="169.96" r="132.93"/><circle class="cls-90" cx="170.89" cy="169.96" r="133.17"/><circle class="cls-90" cx="170.89" cy="169.96" r="133.42"/><circle class="cls-90" cx="170.89" cy="169.96" r="133.66"/><circle class="cls-90" cx="170.89" cy="169.96" r="133.9"/><circle class="cls-90" cx="170.89" cy="169.96" r="134.14"/><circle class="cls-90" cx="170.89" cy="169.96" r="134.39"/><circle class="cls-91" cx="170.89" cy="169.96" r="134.63"/><circle class="cls-91" cx="170.89" cy="169.96" r="134.87"/><circle class="cls-91" cx="170.89" cy="169.96" r="135.11"/><circle class="cls-91" cx="170.89" cy="169.96" r="135.36"/><circle class="cls-91" cx="170.89" cy="169.96" r="135.6"/><circle class="cls-91" cx="170.89" cy="169.96" r="135.84"/><path class="cls-1" d="M225.11,110.48l4.9-9.86a14.17,14.17,0,0,0-6.39-19h0a14.17,14.17,0,0,0-19,6.38l-4.88,9.82-24.7-12.35a8.87,8.87,0,0,0-8,0L142.46,97.8,137.6,88a14.17,14.17,0,0,0-19-6.38h0a14.17,14.17,0,0,0-6.39,19l4.9,9.85-16.8,8.4a8.87,8.87,0,0,0-4.91,7.94v72.7a8.89,8.89,0,0,0,4.91,8l43.4,21.7h0l24.38,48.77a3.33,3.33,0,0,0,6,0l24.38-48.77,43.39-21.7a8.88,8.88,0,0,0,4.92-8v-72.7a8.86,8.86,0,0,0-4.92-7.94Zm-54-14.55,64.54,32.27v21.37l-60.56-30.28a8.87,8.87,0,0,0-8,0l-60.56,30.28V128.2Zm64.54,68.38-64.54,32.27-64.53-32.27V162l64.53-32.26L235.61,162Zm-64.54,66.08-64.53-32.27V176.76L167.1,207a8.87,8.87,0,0,0,8,0l60.56-30.27v21.36Z"/><path class="cls-1" d="M255.88,126.05a5.57,5.57,0,1,0,0,11.13,26,26,0,1,1,0,52,5.57,5.57,0,1,0,0,11.13,37.11,37.11,0,1,0,0-74.22Z"/><path class="cls-1" d="M86.1,137.18a5.57,5.57,0,1,0,0-11.13,37.11,37.11,0,0,0,0,74.22,5.57,5.57,0,1,0,0-11.13,26,26,0,0,1,0-52Z"/></g></g></svg>